{
	"asset":{
		"copyright":"IN3DITO",
		"generator":"Khronos glTF Blender I/O v3.6.27",
		"version":"2.0"
	},
	"extensionsUsed":[
		"KHR_materials_specular",
		"KHR_materials_ior"
	],
	"scene":0,
	"scenes":[
		{
			"name":"Scene",
			"nodes":[
				0
			]
		}
	],
	"nodes":[
		{
			"mesh":0,
			"name":"obj_0",
			"rotation":[
				0,
				0.7071068286895752,
				0,
				0.7071068286895752
			],
			"scale":[
				0.0010000000474974513,
				0.0010000000474974513,
				0.0010000000474974513
			],
			"translation":[
				0,
				0.03855939954519272,
				0
			]
		}
	],
	"materials":[
		{
			"doubleSided":true,
			"extensions":{
				"KHR_materials_specular":{
					"specularColorFactor":[
						0,
						0,
						0
					]
				},
				"KHR_materials_ior":{
					"ior":1.4500000476837158
				}
			},
			"name":"color_6383466.001",
			"pbrMetallicRoughness":{
				"baseColorFactor":[
					0.0204678475856781,
					0.021477174013853073,
					0.02197912335395813,
					1
				],
				"metallicFactor":0
			}
		}
	],
	"meshes":[
		{
			"name":"obj_0.001",
			"primitives":[
				{
					"attributes":{
						"POSITION":0,
						"NORMAL":1
					},
					"indices":2,
					"material":0
				}
			]
		}
	],
	"accessors":[
		{
			"bufferView":0,
			"componentType":5126,
			"count":81240,
			"max":[
				57.277767181396484,
				92.07191467285156,
				109.5850601196289
			],
			"min":[
				-92.72222900390625,
				-21.928081512451172,
				-110.41494750976562
			],
			"type":"VEC3"
		},
		{
			"bufferView":1,
			"componentType":5126,
			"count":81240,
			"type":"VEC3"
		},
		{
			"bufferView":2,
			"componentType":5125,
			"count":104538,
			"type":"SCALAR"
		}
	],
	"bufferViews":[
		{
			"buffer":0,
			"byteLength":974880,
			"byteOffset":0,
			"target":34962
		},
		{
			"buffer":0,
			"byteLength":974880,
			"byteOffset":974880,
			"target":34962
		},
		{
			"buffer":0,
			"byteLength":418152,
			"byteOffset":1949760,
			"target":34963
		}
	],
	"buffers":[
		{
			"byteLength":2367912,
			"uri":"data:application/octet-stream;base64,"
		}
	]
}
