{
    "asset" : {
        "copyright" : "IN3DITO",
        "generator" : "Khronos glTF Blender I/O v3.3.32",
        "version" : "2.0"
    },
    "extensionsUsed" : [
        "KHR_materials_specular",
        "KHR_materials_ior"
    ],
    "scene" : 0,
    "scenes" : [
        {
            "name" : "Scene",
            "nodes" : [
                0
            ]
        }
    ],
    "nodes" : [
        {
            "mesh" : 0,
            "name" : "obj_0",
            "scale" : [
                0.0010000000474974513,
                0.0010000000474974513,
                0.0010000000474974513
            ]
        }
    ],
    "materials" : [
        {
            "doubleSided" : true,
            "extensions" : {
                "KHR_materials_specular" : {
                    "specularColorFactor" : [
                        0.2365176557427874,
                        0.24158622013557013,
                        0.24665478452835285
                    ]
                },
                "KHR_materials_ior" : {
                    "ior" : 1.4500000476837158
                }
            },
            "name" : "color_2829873",
            "pbrMetallicRoughness" : {
                "baseColorFactor" : [
                    0.16862745583057404,
                    0.18039216101169586,
                    0.1921568661928177,
                    1
                ],
                "metallicFactor" : 0.7536231875419617
            }
        },
        {
            "doubleSided" : true,
            "extensions" : {
                "KHR_materials_specular" : {
                    "specularColorFactor" : [
                        1.2438896845992842,
                        1.1361830787265055,
                        1.1361830787265055
                    ]
                },
                "KHR_materials_ior" : {
                    "ior" : 1.4500000476837158
                }
            },
            "name" : "color_10988977",
            "pbrMetallicRoughness" : {
                "baseColorFactor" : [
                    0.4292246401309967,
                    0.39205870032310486,
                    0.39205870032310486,
                    1
                ]
            }
        },
        {
            "doubleSided" : true,
            "extensions" : {
                "KHR_materials_specular" : {
                    "specularColorFactor" : [
                        0,
                        0,
                        0
                    ]
                },
                "KHR_materials_ior" : {
                    "ior" : 1.4500000476837158
                }
            },
            "name" : "color_16448250",
            "pbrMetallicRoughness" : {
                "baseColorFactor" : [
                    0.9803921580314636,
                    0.9803921580314636,
                    0.9803921580314636,
                    1
                ],
                "metallicFactor" : 0
            }
        }
    ],
    "meshes" : [
        {
            "name" : "obj_0",
            "primitives" : [
                {
                    "attributes" : {
                        "POSITION" : 0,
                        "NORMAL" : 1
                    },
                    "indices" : 2,
                    "material" : 0
                },
                {
                    "attributes" : {
                        "POSITION" : 3,
                        "NORMAL" : 4
                    },
                    "indices" : 5,
                    "material" : 1
                },
                {
                    "attributes" : {
                        "POSITION" : 6,
                        "NORMAL" : 7
                    },
                    "indices" : 8,
                    "material" : 2
                }
            ]
        }
    ],
    "accessors" : [
        {
            "bufferView" : 0,
            "componentType" : 5126,
            "count" : 17625,
            "max" : [
                88,
                41.2869987487793,
                106.51699829101562
            ],
            "min" : [
                -87,
                12.399999618530273,
                -133.26699829101562
            ],
            "type" : "VEC3"
        },
        {
            "bufferView" : 1,
            "componentType" : 5126,
            "count" : 17625,
            "type" : "VEC3"
        },
        {
            "bufferView" : 2,
            "componentType" : 5123,
            "count" : 18276,
            "type" : "SCALAR"
        },
        {
            "bufferView" : 3,
            "componentType" : 5126,
            "count" : 13010,
            "max" : [
                48.79999923706055,
                35.37779998779297,
                98.4530029296875
            ],
            "min" : [
                -47.5,
                15.303199768066406,
                -125.5082015991211
            ],
            "type" : "VEC3"
        },
        {
            "bufferView" : 4,
            "componentType" : 5126,
            "count" : 13010,
            "type" : "VEC3"
        },
        {
            "bufferView" : 5,
            "componentType" : 5123,
            "count" : 13077,
            "type" : "SCALAR"
        },
        {
            "bufferView" : 6,
            "componentType" : 5126,
            "count" : 31101,
            "max" : [
                78,
                35,
                122.5
            ],
            "min" : [
                -77,
                0,
                -122.5
            ],
            "type" : "VEC3"
        },
        {
            "bufferView" : 7,
            "componentType" : 5126,
            "count" : 31101,
            "type" : "VEC3"
        },
        {
            "bufferView" : 8,
            "componentType" : 5123,
            "count" : 41730,
            "type" : "SCALAR"
        }
    ],
    "bufferViews" : [
        {
            "buffer" : 0,
            "byteLength" : 211500,
            "byteOffset" : 0,
            "target" : 34962
        },
        {
            "buffer" : 0,
            "byteLength" : 211500,
            "byteOffset" : 211500,
            "target" : 34962
        },
        {
            "buffer" : 0,
            "byteLength" : 36552,
            "byteOffset" : 423000,
            "target" : 34963
        },
        {
            "buffer" : 0,
            "byteLength" : 156120,
            "byteOffset" : 459552,
            "target" : 34962
        },
        {
            "buffer" : 0,
            "byteLength" : 156120,
            "byteOffset" : 615672,
            "target" : 34962
        },
        {
            "buffer" : 0,
            "byteLength" : 26154,
            "byteOffset" : 771792,
            "target" : 34963
        },
        {
            "buffer" : 0,
            "byteLength" : 373212,
            "byteOffset" : 797948,
            "target" : 34962
        },
        {
            "buffer" : 0,
            "byteLength" : 373212,
            "byteOffset" : 1171160,
            "target" : 34962
        },
        {
            "buffer" : 0,
            "byteLength" : 83460,
            "byteOffset" : 1544372,
            "target" : 34963
        }
    ],
    "buffers" : [
        {
            "byteLength" : 1627832,
            "uri" : "data:application/octet-stream;base64,"
        }
    ]
}
