{
    "asset" : {
        "copyright" : "IN3DITO",
        "generator" : "Khronos glTF Blender I/O v3.3.32",
        "version" : "2.0"
    },
    "extensionsUsed" : [
        "KHR_lights_punctual",
        "KHR_materials_specular",
        "KHR_materials_ior"
    ],
    "extensionsRequired" : [
        "KHR_lights_punctual"
    ],
    "extensions" : {
        "KHR_lights_punctual" : {
            "lights" : [
                {
                    "color" : [
                        1,
                        1,
                        1
                    ],
                    "intensity" : 500,
                    "type" : "point",
                    "range" : 1,
                    "name" : "Light"
                }
            ]
        }
    },
    "scene" : 0,
    "scenes" : [
        {
            "name" : "Scene",
            "nodes" : [
                0,
                1
            ]
        }
    ],
    "nodes" : [
        {
            "extensions" : {
                "KHR_lights_punctual" : {
                    "light" : 0
                }
            },
            "name" : "Light",
            "rotation" : [
                -0.2841663062572479,
                0.7269423604011536,
                0.34203392267227173,
                0.5232754349708557
            ],
            "translation" : [
                4.076245307922363,
                5.903861999511719,
                -1.0054539442062378
            ]
        },
        {
            "mesh" : 0,
            "name" : "obj_0",
            "rotation" : [
                0,
                0.18097372353076935,
                0,
                0.9834879636764526
            ],
            "scale" : [
                0.009999999776482582,
                0.009999999776482582,
                0.009999999776482582
            ]
        }
    ],
    "materials" : [
        {
            "doubleSided" : true,
            "extensions" : {
                "KHR_materials_specular" : {
                    "specularColorFactor" : [
                        0,
                        0,
                        0
                    ]
                },
                "KHR_materials_ior" : {
                    "ior" : 1.4500000476837158
                }
            },
            "name" : "color_4634441",
            "pbrMetallicRoughness" : {
                "baseColorFactor" : [
                    0.01849943958222866,
                    1,
                    0,
                    1
                ],
                "metallicFactor" : 0
            }
        },
        {
            "doubleSided" : true,
            "extensions" : {
                "KHR_materials_specular" : {
                    "specularColorFactor" : [
                        0,
                        0,
                        0
                    ]
                },
                "KHR_materials_ior" : {
                    "ior" : 1.4500000476837158
                }
            },
            "name" : "color_7720667",
            "pbrMetallicRoughness" : {
                "baseColorFactor" : [
                    1,
                    0.6619766354560852,
                    0.22430391609668732,
                    1
                ],
                "metallicFactor" : 0
            }
        },
        {
            "doubleSided" : true,
            "extensions" : {
                "KHR_materials_specular" : {
                    "specularColorFactor" : [
                        0,
                        0,
                        0
                    ]
                },
                "KHR_materials_ior" : {
                    "ior" : 0
                }
            },
            "name" : "color_16448250",
            "pbrMetallicRoughness" : {
                "baseColorFactor" : [
                    0.01849943958222866,
                    1,
                    0,
                    1
                ],
                "metallicFactor" : 0
            }
        }
    ],
    "meshes" : [
        {
            "name" : "obj_0",
            "primitives" : [
                {
                    "attributes" : {
                        "POSITION" : 0,
                        "NORMAL" : 1
                    },
                    "indices" : 2,
                    "material" : 0
                },
                {
                    "attributes" : {
                        "POSITION" : 3,
                        "NORMAL" : 4
                    },
                    "indices" : 5,
                    "material" : 1
                },
                {
                    "attributes" : {
                        "POSITION" : 6,
                        "NORMAL" : 7
                    },
                    "indices" : 8,
                    "material" : 2
                }
            ]
        }
    ],
    "accessors" : [
        {
            "bufferView" : 0,
            "componentType" : 5126,
            "count" : 12233,
            "max" : [
                18.625,
                70,
                29.650999069213867
            ],
            "min" : [
                -36.625,
                0,
                -25.570999145507812
            ],
            "type" : "VEC3"
        },
        {
            "bufferView" : 1,
            "componentType" : 5126,
            "count" : 12233,
            "type" : "VEC3"
        },
        {
            "bufferView" : 2,
            "componentType" : 5123,
            "count" : 12678,
            "type" : "SCALAR"
        },
        {
            "bufferView" : 3,
            "componentType" : 5126,
            "count" : 3098,
            "max" : [
                13.75,
                180.33700561523438,
                24.790000915527344
            ],
            "min" : [
                -31.75,
                112.80000305175781,
                -20.709999084472656
            ],
            "type" : "VEC3"
        },
        {
            "bufferView" : 4,
            "componentType" : 5126,
            "count" : 3098,
            "type" : "VEC3"
        },
        {
            "bufferView" : 5,
            "componentType" : 5123,
            "count" : 3588,
            "type" : "SCALAR"
        },
        {
            "bufferView" : 6,
            "componentType" : 5126,
            "count" : 38182,
            "max" : [
                21.149999618530273,
                237.9720001220703,
                32.189998626708984
            ],
            "min" : [
                -39.150001525878906,
                217,
                -28.110000610351562
            ],
            "type" : "VEC3"
        },
        {
            "bufferView" : 7,
            "componentType" : 5126,
            "count" : 38182,
            "type" : "VEC3"
        },
        {
            "bufferView" : 8,
            "componentType" : 5123,
            "count" : 44388,
            "type" : "SCALAR"
        }
    ],
    "bufferViews" : [
        {
            "buffer" : 0,
            "byteLength" : 146796,
            "byteOffset" : 0,
            "target" : 34962
        },
        {
            "buffer" : 0,
            "byteLength" : 146796,
            "byteOffset" : 146796,
            "target" : 34962
        },
        {
            "buffer" : 0,
            "byteLength" : 25356,
            "byteOffset" : 293592,
            "target" : 34963
        },
        {
            "buffer" : 0,
            "byteLength" : 37176,
            "byteOffset" : 318948,
            "target" : 34962
        },
        {
            "buffer" : 0,
            "byteLength" : 37176,
            "byteOffset" : 356124,
            "target" : 34962
        },
        {
            "buffer" : 0,
            "byteLength" : 7176,
            "byteOffset" : 393300,
            "target" : 34963
        },
        {
            "buffer" : 0,
            "byteLength" : 458184,
            "byteOffset" : 400476,
            "target" : 34962
        },
        {
            "buffer" : 0,
            "byteLength" : 458184,
            "byteOffset" : 858660,
            "target" : 34962
        },
        {
            "buffer" : 0,
            "byteLength" : 88776,
            "byteOffset" : 1316844,
            "target" : 34963
        }
    ],
    "buffers" : [
        {
            "byteLength" : 1405620,
            "uri" : "data:application/octet-stream;base64,"
        }
    ]
}
