{"asset":{"generator":"3D Builder","version":"2.0"},"scene":0,"scenes":[{"nodes":[0,1,2,3,4,5]}],"nodes":[{"mesh":0,"matrix":[0.039370074868202209,0,0,0,0,-4.6932786545994531E-9,-0.039370071142911911,0,0,0.039370071142911911,-4.6932786545994531E-9,0,0,0,0,1]},{"mesh":1,"matrix":[0.039370074868202209,0,0,0,0,-4.6932786545994531E-9,-0.039370071142911911,0,0,0.039370071142911911,-4.6932786545994531E-9,0,0,0,0,1]},{"mesh":2,"matrix":[0.039370074868202209,0,0,0,0,-4.6932786545994531E-9,-0.039370071142911911,0,0,0.039370071142911911,-4.6932786545994531E-9,0,0,0,0,1]},{"mesh":3,"matrix":[0.039370074868202209,0,0,0,0,-4.6932786545994531E-9,-0.039370071142911911,0,0,0.039370071142911911,-4.6932786545994531E-9,0,0,0,0,1]},{"mesh":4,"matrix":[0.039370074868202209,0,0,0,0,-4.6932786545994531E-9,-0.039370071142911911,0,0,0.039370071142911911,-4.6932786545994531E-9,0,0,0,0,1]},{"mesh":5,"matrix":[0.039370074868202209,0,0,0,0,-4.6932786545994531E-9,-0.039370071142911911,0,0,0.039370071142911911,-4.6932786545994531E-9,0,0,0,0,1]}],"meshes":[{"primitives":[{"attributes":{"POSITION":0},"mode":4,"indices":1,"material":0}]},{"primitives":[{"attributes":{"POSITION":2},"mode":4,"indices":3,"material":0}]},{"primitives":[{"attributes":{"POSITION":4},"mode":4,"indices":5,"material":1}]},{"primitives":[{"attributes":{"POSITION":6},"mode":4,"indices":7,"material":1}]},{"primitives":[{"attributes":{"POSITION":8},"mode":4,"indices":9,"material":1}]},{"primitives":[{"attributes":{"POSITION":10},"mode":4,"indices":11,"material":0}]}],"materials":[{"name":"Metallic","pbrMetallicRoughness":{"baseColorFactor":[0.059511240571737289,0.47353154420852661,0.064803279936313629,1],"metallicFactor":0,"roughnessFactor":0.14999997615814209},"alphaMode":"OPAQUE"},{"name":"Metallic","pbrMetallicRoughness":{"baseColorFactor":[1,0.72305524349212646,0.010329823009669781,1],"metallicFactor":1,"roughnessFactor":0.85000002384185791},"alphaMode":"OPAQUE"}],"accessors":[{"bufferView":0,"byteOffset":0,"count":3114,"componentType":5126,"type":"VEC3","min":[-0.68879717588424683,-0.87883996963500977,4.1071295738220215],"max":[0.83413606882095337,0.65267848968505859,5.0379376411437988]},{"bufferView":1,"byteOffset":0,"count":18708,"componentType":5125,"type":"SCALAR"},{"bufferView":2,"byteOffset":0,"count":3323,"componentType":5126,"type":"VEC3","min":[-0.56230515241622925,-0.74813157320022583,2.2605493068695068],"max":[0.70764410495758057,0.521919310092926,3.220059871673584]},{"bufferView":3,"byteOffset":0,"count":19938,"componentType":5125,"type":"SCALAR"},{"bufferView":4,"byteOffset":0,"count":2954,"componentType":5126,"type":"VEC3","min":[-0.67716395854949951,-0.86202520132064819,0],"max":[0.82224893569946289,0.63560974597930908,0.40121841430664063]},{"bufferView":5,"byteOffset":0,"count":17736,"componentType":5125,"type":"SCALAR"},{"bufferView":6,"byteOffset":0,"count":5818,"componentType":5126,"type":"VEC3","min":[-0.57779920101165771,-0.75671672821044922,5.6057801246643066],"max":[0.72308725118637085,0.53045368194580078,5.7477660179138184]},{"bufferView":7,"byteOffset":0,"count":35082,"componentType":5125,"type":"SCALAR"},{"bufferView":8,"byteOffset":0,"count":14907,"componentType":5126,"type":"VEC3","min":[-0.690778374671936,-0.87579196691513062,0.7543799877166748],"max":[0.83621889352798462,0.64942729473114014,1.8689320087432861]},{"bufferView":9,"byteOffset":0,"count":90234,"componentType":5125,"type":"SCALAR"},{"bufferView":10,"byteOffset":0,"count":420,"componentType":5126,"type":"VEC3","min":[-0.53609234094619751,-0.430631548166275,3.644899845123291],"max":[0.68143129348754883,0.20441929996013641,3.898900032043457]},{"bufferView":11,"byteOffset":0,"count":2508,"componentType":5125,"type":"SCALAR"}],"bufferViews":[{"buffer":0,"byteOffset":0,"byteLength":37368,"byteStride":12,"target":34962},{"buffer":0,"byteOffset":37368,"byteLength":74832,"target":34963},{"buffer":0,"byteOffset":112200,"byteLength":39876,"byteStride":12,"target":34962},{"buffer":0,"byteOffset":152076,"byteLength":79752,"target":34963},{"buffer":0,"byteOffset":231828,"byteLength":35448,"byteStride":12,"target":34962},{"buffer":0,"byteOffset":267276,"byteLength":70944,"target":34963},{"buffer":0,"byteOffset":338220,"byteLength":69816,"byteStride":12,"target":34962},{"buffer":0,"byteOffset":408036,"byteLength":140328,"target":34963},{"buffer":0,"byteOffset":548364,"byteLength":178884,"byteStride":12,"target":34962},{"buffer":0,"byteOffset":727248,"byteLength":360936,"target":34963},{"buffer":0,"byteOffset":1088184,"byteLength":5040,"byteStride":12,"target":34962},{"buffer":0,"byteOffset":1093224,"byteLength":10032,"target":34963}],"buffers":[{"byteLength":1103256,"uri":"GrinderToxic.bin"}]}