{
    "asset" : {
        "copyright" : "IN3DITO",
        "generator" : "Khronos glTF Blender I/O v3.3.32",
        "version" : "2.0"
    },
    "extensionsUsed" : [
        "KHR_materials_specular",
        "KHR_materials_ior"
    ],
    "scene" : 0,
    "scenes" : [
        {
            "name" : "Scene",
            "nodes" : [
                0
            ]
        }
    ],
    "nodes" : [
        {
            "mesh" : 0,
            "name" : "obj_0",
            "rotation" : [
                0,
                0.7071068286895752,
                0,
                0.7071068286895752
            ],
            "scale" : [
                0.0010000000474974513,
                0.0010000000474974513,
                0.0010000000474974513
            ]
        }
    ],
    "materials" : [
        {
            "doubleSided" : true,
            "extensions" : {
                "KHR_materials_specular" : {
                    "specularColorFactor" : [
                        0,
                        0,
                        0
                    ]
                },
                "KHR_materials_ior" : {
                    "ior" : 1.4500000476837158
                }
            },
            "name" : "color_2829873",
            "pbrMetallicRoughness" : {
                "baseColorFactor" : [
                    0.004895608406513929,
                    0.004895608406513929,
                    0.004895608406513929,
                    1
                ],
                "metallicFactor" : 0
            }
        },
        {
            "doubleSided" : true,
            "extensions" : {
                "KHR_materials_specular" : {
                    "specularColorFactor" : [
                        0,
                        0,
                        0
                    ]
                },
                "KHR_materials_ior" : {
                    "ior" : 1.4500000476837158
                }
            },
            "name" : "color_16448250",
            "pbrMetallicRoughness" : {
                "baseColorFactor" : [
                    0.9803921580314636,
                    0.9803921580314636,
                    0.9803921580314636,
                    1
                ],
                "metallicFactor" : 0
            }
        }
    ],
    "meshes" : [
        {
            "name" : "obj_0",
            "primitives" : [
                {
                    "attributes" : {
                        "POSITION" : 0,
                        "NORMAL" : 1
                    },
                    "indices" : 2,
                    "material" : 0
                },
                {
                    "attributes" : {
                        "POSITION" : 3,
                        "NORMAL" : 4
                    },
                    "indices" : 5,
                    "material" : 1
                }
            ]
        }
    ],
    "accessors" : [
        {
            "bufferView" : 0,
            "componentType" : 5126,
            "count" : 62814,
            "max" : [
                50.16999816894531,
                217.2779998779297,
                47.83700180053711
            ],
            "min" : [
                -105.5,
                0,
                -101.7979965209961
            ],
            "type" : "VEC3"
        },
        {
            "bufferView" : 1,
            "componentType" : 5126,
            "count" : 62814,
            "type" : "VEC3"
        },
        {
            "bufferView" : 2,
            "componentType" : 5123,
            "count" : 64170,
            "type" : "SCALAR"
        },
        {
            "bufferView" : 3,
            "componentType" : 5126,
            "count" : 4129,
            "max" : [
                -3.809999942779541,
                69.48699951171875,
                8.399999618530273
            ],
            "min" : [
                -51.52000045776367,
                60.354698181152344,
                3.2397000789642334
            ],
            "type" : "VEC3"
        },
        {
            "bufferView" : 4,
            "componentType" : 5126,
            "count" : 4129,
            "type" : "VEC3"
        },
        {
            "bufferView" : 5,
            "componentType" : 5123,
            "count" : 4170,
            "type" : "SCALAR"
        }
    ],
    "bufferViews" : [
        {
            "buffer" : 0,
            "byteLength" : 753768,
            "byteOffset" : 0,
            "target" : 34962
        },
        {
            "buffer" : 0,
            "byteLength" : 753768,
            "byteOffset" : 753768,
            "target" : 34962
        },
        {
            "buffer" : 0,
            "byteLength" : 128340,
            "byteOffset" : 1507536,
            "target" : 34963
        },
        {
            "buffer" : 0,
            "byteLength" : 49548,
            "byteOffset" : 1635876,
            "target" : 34962
        },
        {
            "buffer" : 0,
            "byteLength" : 49548,
            "byteOffset" : 1685424,
            "target" : 34962
        },
        {
            "buffer" : 0,
            "byteLength" : 8340,
            "byteOffset" : 1734972,
            "target" : 34963
        }
    ],
    "buffers" : [
        {
            "byteLength" : 1743312,
            "uri" : "data:application/octet-stream;base64,"
        }
    ]
}
