{
    "asset" : {
        "copyright" : "in3dito",
        "generator" : "Khronos glTF Blender I/O v3.3.32",
        "version" : "2.0"
    },
    "extensionsUsed" : [
        "KHR_materials_specular",
        "KHR_materials_ior"
    ],
    "scene" : 0,
    "scenes" : [
        {
            "name" : "Scene",
            "nodes" : [
                0
            ]
        }
    ],
    "nodes" : [
        {
            "mesh" : 0,
            "name" : "obj_0",
            "scale" : [
                0.0010000000474974513,
                0.0010000000474974513,
                0.0010000000474974513
            ]
        }
    ],
    "materials" : [
        {
            "doubleSided" : true,
            "extensions" : {
                "KHR_materials_specular" : {
                    "specularColorFactor" : [
                        0,
                        0,
                        0
                    ]
                },
                "KHR_materials_ior" : {
                    "ior" : 1.4500000476837158
                }
            },
            "name" : "color_1206582",
            "pbrMetallicRoughness" : {
                "baseColorFactor" : [
                    0.07058823853731155,
                    0.4117647111415863,
                    0.21176470816135406,
                    1
                ],
                "metallicFactor" : 0
            }
        }
    ],
    "meshes" : [
        {
            "name" : "obj_0",
            "primitives" : [
                {
                    "attributes" : {
                        "POSITION" : 0,
                        "NORMAL" : 1
                    },
                    "indices" : 2,
                    "material" : 0
                }
            ]
        }
    ],
    "accessors" : [
        {
            "bufferView" : 0,
            "componentType" : 5126,
            "count" : 101588,
            "max" : [
                302,
                82,
                243
            ],
            "min" : [
                -317.989990234375,
                0,
                -317
            ],
            "type" : "VEC3"
        },
        {
            "bufferView" : 1,
            "componentType" : 5126,
            "count" : 101588,
            "type" : "VEC3"
        },
        {
            "bufferView" : 2,
            "componentType" : 5125,
            "count" : 127512,
            "type" : "SCALAR"
        }
    ],
    "bufferViews" : [
        {
            "buffer" : 0,
            "byteLength" : 1219056,
            "byteOffset" : 0,
            "target" : 34962
        },
        {
            "buffer" : 0,
            "byteLength" : 1219056,
            "byteOffset" : 1219056,
            "target" : 34962
        },
        {
            "buffer" : 0,
            "byteLength" : 510048,
            "byteOffset" : 2438112,
            "target" : 34963
        }
    ],
    "buffers" : [
        {
            "byteLength" : 2948160,
            "uri" : "data:application/octet-stream;base64,"
        }
    ]
}
