{
	"asset":{
		"copyright":"IN3DITO",
		"generator":"Khronos glTF Blender I/O v3.6.27",
		"version":"2.0"
	},
	"extensionsUsed":[
		"KHR_materials_specular",
		"KHR_materials_ior"
	],
	"scene":0,
	"scenes":[
		{
			"name":"Scene",
			"nodes":[
				0
			]
		}
	],
	"nodes":[
		{
			"mesh":0,
			"name":"obj_0",
			"scale":[
				0.0010000000474974513,
				0.0010000000474974513,
				0.0010000000474974513
			]
		}
	],
	"materials":[
		{
			"doubleSided":true,
			"extensions":{
				"KHR_materials_specular":{
					"specularColorFactor":[
						0,
						0,
						0
					]
				},
				"KHR_materials_ior":{
					"ior":1.4500000476837158
				}
			},
			"name":"color_921102",
			"pbrMetallicRoughness":{
				"baseColorFactor":[
					0.054901961237192154,
					0.054901961237192154,
					0.054901961237192154,
					1
				],
				"metallicFactor":0
			}
		}
	],
	"meshes":[
		{
			"name":"obj_0",
			"primitives":[
				{
					"attributes":{
						"POSITION":0,
						"NORMAL":1
					},
					"indices":2,
					"material":0
				}
			]
		}
	],
	"accessors":[
		{
			"bufferView":0,
			"componentType":5126,
			"count":76732,
			"max":[
				66.99800109863281,
				28.069000244140625,
				75.9000015258789
			],
			"min":[
				-67,
				0.0689999982714653,
				-58.09700012207031
			],
			"type":"VEC3"
		},
		{
			"bufferView":1,
			"componentType":5126,
			"count":76732,
			"type":"VEC3"
		},
		{
			"bufferView":2,
			"componentType":5125,
			"count":96618,
			"type":"SCALAR"
		}
	],
	"bufferViews":[
		{
			"buffer":0,
			"byteLength":920784,
			"byteOffset":0,
			"target":34962
		},
		{
			"buffer":0,
			"byteLength":920784,
			"byteOffset":920784,
			"target":34962
		},
		{
			"buffer":0,
			"byteLength":386472,
			"byteOffset":1841568,
			"target":34963
		}
	],
	"buffers":[
		{
			"byteLength":2228040,
			"uri":"data:application/octet-stream;base64,"
		}
	]
}
